Coordinates
version=1
nRows=4
nColumns=63
inDegrees=yes

Units are S.I. units (second, meters, Newtons, ...)
If the header above contains a line with 'inDegrees', this indicates whether rotational values are in degrees (yes) or radians (no).

endheader
time	pelvis_tilt	pelvis_list	pelvis_rotation	pelvis_tx	pelvis_ty	pelvis_tz	hip_flexion_r	hip_adduction_r	hip_rotation_r	knee_angle_r	knee_angle_r_beta	ankle_angle_r	subtalar_angle_r	mtp_angle_r	hip_flexion_l	hip_adduction_l	hip_rotation_l	knee_angle_l	knee_angle_l_beta	ankle_angle_l	subtalar_angle_l	mtp_angle_l	L5_S1_Flex_Ext	L5_S1_Lat_Bending	L5_S1_axial_rotation	L4_L5_Flex_Ext	L4_L5_Lat_Bending	L4_L5_axial_rotation	L3_L4_Flex_Ext	L3_L4_Lat_Bending	L3_L4_axial_rotation	L2_L3_Flex_Ext	L2_L3_Lat_Bending	L2_L3_axial_rotation	L1_L2_Flex_Ext	L1_L2_Lat_Bending	L1_L2_axial_rotation	L1_T12_Flex_Ext	L1_T12_Lat_Bending	L1_T12_axial_rotation	Abs_r3	Abs_r2	Abs_r1	Abs_t1	Abs_t2	neck_flexion	neck_bending	neck_rotation	arm_flex_r	arm_add_r	arm_rot_r	elbow_flex_r	pro_sup_r	wrist_flex_r	wrist_dev_r	arm_flex_l	arm_add_l	arm_rot_l	elbow_flex_l	pro_sup_l	wrist_flex_l	wrist_dev_l
      4.16949153	     -3.85545680	     -1.59271421	     88.80759200	      0.26073509	      0.70815771	      0.70584014	      4.52427359	     -3.82598950	      4.50512243	     10.99409798	      0.19188321	     20.71207746	      2.64413245	      0.00000000	      1.34275489	      1.63287267	    -15.24321016	      7.12729855	      0.12439483	     19.14138209	     12.96934709	      0.00000000	     -0.24088698	     -0.27966765	      2.59973021	     -0.44735122	     -0.37195798	      2.76221334	     -0.39575323	     -0.67998394	      2.76221334	     -0.27530973	     -0.67998394	      2.27476393	     -0.22368765	     -0.57029828	      2.11228079	     -0.13764282	     -0.43320520	      1.94979765	     -1.72063164	     -3.16365644	     14.45891949	      0.00000000	      0.00000000	     11.61945739	     22.35209291	     17.46822517	      3.86150440	    -10.19341190	     34.99354969	     50.12354028	     72.57864557	     10.03198722	      5.37403025	     18.84813404	     -9.47089998	     59.77485283	     53.81923833	     60.80903575	      3.95112462	     14.98987040
      4.18644068	     -3.84637251	     -1.54655867	     88.95440563	      0.26038405	      0.70819854	      0.70545360	      4.50164514	     -3.83790034	      4.41465011	     11.15074182	      0.19461716	     20.60881604	      2.53932107	      0.00000000	      1.27457410	      1.64485820	    -15.11198370	      7.00208353	      0.12220941	     19.54824837	     13.16535209	      0.00000000	     -0.23962295	     -0.27601721	      2.57478467	     -0.44500378	     -0.36710289	      2.73570872	     -0.39367654	     -0.67110824	      2.73570872	     -0.27386507	     -0.67110824	      2.25293659	     -0.22251387	     -0.56285429	      2.09201255	     -0.13692055	     -0.42755065	      1.93108851	     -1.71160275	     -3.12236185	     14.32017993	      0.00000000	      0.00000000	     11.58604829	     22.25020221	     17.35810319	      3.79061349	    -10.18224170	     34.89200445	     50.08136236	     72.50862952	      9.87706958	      5.38920745	     18.83317814	     -9.48344172	     59.85574900	     53.83907210	     60.81103223	      3.94417616	     15.03734491
      4.20338983	     -3.78123458	     -1.45078154	     89.49542215	      0.25974681	      0.70835977	      0.70496485	      4.30584068	     -3.72633521	      4.67381657	     11.22819757	      0.19596902	     20.27741346	      1.22808644	      0.00000000	      1.24063959	      1.50008942	    -15.55443992	      7.06539227	      0.12331436	     20.03071108	     14.64635365	      0.00000000	     -0.24579413	     -0.26830710	      2.48274932	     -0.45646427	     -0.35684844	      2.63792115	     -0.40381517	     -0.65236187	      2.63792115	     -0.28091811	     -0.65236187	      2.17240565	     -0.22824442	     -0.54713183	      2.01723382	     -0.14044676	     -0.41560769	      1.86206199	     -1.75568286	     -3.03514354	     13.80830689	      0.00000000	      0.00000000	     11.50211824	     22.20994129	     17.29621565	      3.72476727	    -10.13499473	     34.73114406	     50.08412453	     72.84225517	      9.68111659	      5.44910997	     18.67699862	     -9.47011115	     59.52198645	     53.86537824	     61.12400093	      4.23975782	     15.60239269
      4.22033898	     -3.74434310	     -1.41890104	     89.86984790	      0.25916703	      0.70841679	      0.70459567	      4.23733746	     -3.73753535	      4.07210220	     11.31564397	      0.19749524	     20.23672548	      1.40525153	      0.00000000	      1.24365624	      1.48082459	    -15.24205448	      7.05659755	      0.12316086	     20.31534317	     14.70161883	      0.00000000	     -0.24370085	     -0.26496475	      2.43796125	     -0.45257684	     -0.35240312	      2.59033383	     -0.40037612	     -0.64423530	      2.59033383	     -0.27852570	     -0.64423530	      2.13321610	     -0.22630061	     -0.54031612	      1.98084352	     -0.13925066	     -0.41043040	      1.82847094	     -1.74073078	     -2.99733426	     13.55920910	      0.00000000	      0.00000000	     11.67217897	     22.19448295	     16.94468824	      3.80543803	    -10.36019847	     35.39102001	     50.19910641	     71.58230842	      9.27562795	      5.71867509	     18.80747151	     -9.53657498	     60.13751159	     53.81387262	     60.29460716	      4.09846939	     15.46487927
